<svg xmlns="http://www.w3.org/2000/svg" width="1232.307" height="311.383" viewBox="0 0 1232.307 311.383">
  <g id="Group_553" data-name="Group 553" transform="matrix(0.996, 0.087, -0.087, 0.996, 39.22, -298.824)" opacity="0.83">
    <path id="Path_1481" data-name="Path 1481" d="M1223.622,378.458V482.5L95.54,486.549c-84.482,0-90.686,37.562-90.686,6.879L95.54,394.891c241.732-50.448,475.282-128.539,849.843-52.5C1045.609,362.723,1137.653,373.776,1223.622,378.458Z" transform="translate(0)" fill="#fff" opacity="0.34"/>
    <path id="Path_1482" data-name="Path 1482" d="M1223.622,456.056V482.5H35.462c-1.52-18.314,0-23.552,0-52.578V316.466c193.239-23.19,435.376-33.008,950.528,97.809C1070.6,435.762,1149.4,449.008,1223.622,456.056Z" fill="#fff" opacity="0.34"/>
    <path id="Path_1483" data-name="Path 1483" d="M1223.622,296.983V482.5H35.876c-2.881-24.333,0,28.084,0,0V385.026C482.456,394.03,813,294.531,1223.622,296.983Z" transform="translate(0 0)" fill="#fff" opacity="0.18"/>
  </g>
</svg>
