<svg xmlns="http://www.w3.org/2000/svg" width="63.991" height="64" viewBox="0 0 63.991 64">
  <g id="Group_444" data-name="Group 444" transform="translate(-480.032 -480)">
    <path id="Path_1109" data-name="Path 1109" d="M519.076,480.8a31.992,31.992,0,0,0-36.44,18.562,1.25,1.25,0,0,0,2.3.986,29.485,29.485,0,1,1-2.379,10.525,1.249,1.249,0,1,0-2.5-.1A31.989,31.989,0,1,0,519.076,480.8Zm0,0" fill="#fff"/>
    <path id="Path_1110" data-name="Path 1110" d="M534.642,489.38a31.993,31.993,0,0,0-40.721-3.755,1.25,1.25,0,0,0,1.416,2.06,29.489,29.489,0,1,1-7.63,7.63,1.25,1.25,0,0,0-2.06-1.416,31.989,31.989,0,1,0,49-4.519Zm0,0" fill="#fff"/>
    <g id="Group_444-2" data-name="Group 444">
      <path id="Path_1111" data-name="Path 1111" d="M536.346,503.575l-.007-.02a25.241,25.241,0,1,0,.007.02Zm-24.323-14.817a23.273,23.273,0,0,1,21.126,13.559,108.479,108.479,0,0,0-42.252,0A23.273,23.273,0,0,1,512.023,488.758Zm-6.5,45.557A23.319,23.319,0,0,1,489.182,516.3a17.767,17.767,0,0,1,16.343,17.688C505.525,534.1,505.523,534.207,505.521,534.315Zm6.5-16.067A6.248,6.248,0,1,1,518.271,512,6.255,6.255,0,0,1,512.023,518.248Zm6.5,16.067c0-.108,0-.215,0-.323A17.767,17.767,0,0,1,534.864,516.3,23.32,23.32,0,0,1,518.524,534.315Z" fill="#fff"/>
      <circle id="Ellipse_116" data-name="Ellipse 116" cx="3.749" cy="3.749" r="3.749" transform="translate(508.274 508.251)" fill="#fff"/>
    </g>
    <path id="Path_1112" data-name="Path 1112" d="M490.286,491.514a1.25,1.25,0,1,0-.883-2.134h0a1.249,1.249,0,0,0,.883,2.133Zm0,0" fill="#fff"/>
  </g>
</svg>
