<svg xmlns="http://www.w3.org/2000/svg" width="88.687" height="64" viewBox="0 0 88.687 64">
  <g id="Vector_Smart_Object2_copy" data-name="Vector Smart Object2 copy" transform="translate(10.22 0.297)">
    <g id="Group_450" data-name="Group 450" transform="translate(-272.915 -95.891)">
      <g id="Group_445" data-name="Group 445">
        <path id="Path_1113" data-name="Path 1113" d="M324.762,134.906a19.657,19.657,0,1,1,19.657-19.656A19.679,19.679,0,0,1,324.762,134.906Zm0-35.5a15.846,15.846,0,1,0,15.846,15.846A15.863,15.863,0,0,0,324.762,99.4Z" fill="#fff"/>
      </g>
      <g id="Group_446" data-name="Group 446">
        <path id="Path_1114" data-name="Path 1114" d="M280.861,129.208l5.745-8.617a3.694,3.694,0,0,1,3.075-1.646h16.427a18.5,18.5,0,0,1-.4-3.695H289.681a7.379,7.379,0,0,0-6.15,3.291l-5.348,8.022-11.291,2.822a5.538,5.538,0,0,0-4.2,5.377v9.285a8.157,8.157,0,0,0,8.156,8.155h4.965a9.237,9.237,0,0,0,18.1,0h24.393a9.238,9.238,0,0,0,18.1,0H344.7A3.675,3.675,0,0,0,348,150.16l2.99-5.98a2.237,2.237,0,0,0,.157-.454l.182-.765a1.947,1.947,0,0,0,.051-.434v-7.52a5.53,5.53,0,0,0-4.632-5.467l-9.441-1.574a18.485,18.485,0,0,1-3.961,3.087l12.792,2.132a1.843,1.843,0,0,1,1.546,1.822v7.3l-2.989,6.2h-8.283a9.238,9.238,0,0,0-18.1,0H293.918a9.238,9.238,0,0,0-18.1,0h-4.965a4.461,4.461,0,0,1-4.461-4.46v-9.285a1.844,1.844,0,0,1,1.4-1.79M284.867,155.9a5.543,5.543,0,1,1,5.543-5.543A5.549,5.549,0,0,1,284.867,155.9Zm42.495,0a5.543,5.543,0,1,1,5.543-5.543A5.55,5.55,0,0,1,327.362,155.9Z" fill="#fff"/>
      </g>
      <g id="Group_448" data-name="Group 448">
        <g id="Group_447" data-name="Group 447">
          <path id="Path_1115" data-name="Path 1115" d="M325.084,122.327v2.4h-2.03v-2.4q-4.579-.482-5.569-4.415l3.489-.8q.6,2.246,3.273,2.245a3.14,3.14,0,0,0,1.934-.494,1.469,1.469,0,0,0,.641-1.193,1.266,1.266,0,0,0-.571-1.1,6.664,6.664,0,0,0-2.233-.721q-3.6-.743-4.65-2.006a4.484,4.484,0,0,1-1.046-2.952,4.764,4.764,0,0,1,1.319-3.384,5.418,5.418,0,0,1,3.413-1.657v-2h2.03v1.979a5.5,5.5,0,0,1,5.125,3.742l-3.2,1.066a2.636,2.636,0,0,0-2.753-1.9q-2.232,0-2.232,1.446a1.308,1.308,0,0,0,.418.984,4.205,4.205,0,0,0,1.891.691,18.849,18.849,0,0,1,3.609,1,4.581,4.581,0,0,1,1.928,1.639,4.35,4.35,0,0,1,.78,2.528,5.113,5.113,0,0,1-1.386,3.487A6.143,6.143,0,0,1,325.084,122.327Z" fill="#fff"/>
        </g>
      </g>
      <g id="Group_449" data-name="Group 449">
        <path id="Path_1116" data-name="Path 1116" d="M303.914,117.271h-16.8l-5.2,7.454-6.063,4.324-10.046,2.945-2.252,8.141,1.732,6.409,3.811,3.811h4.157l2.771-.866,1.906-2.425,1.392-3.118s1.725-.52,2.418-.693,4.158-.52,4.158-.52l2.078.866s.173,1.04.693,1.213,1.739,1.732,1.739,1.732l1.379,1.386,1.039,2.425H319.85l1.969-4.85,2.943-.693s5.263-2.772,5.891-2.252a19.538,19.538,0,0,0,2.252,1.386l1.148,3.811,1.559,2.6h9.181l4.33-6.582v-7.449l-1.9-5.023-11.779-2.945s-20.612,14.377-29.1-11.085" fill="#fff"/>
      </g>
    </g>
  </g>
</svg>
