<svg xmlns="http://www.w3.org/2000/svg" width="80" height="80" viewBox="0 0 80 80">
  <g id="Vector_Smart_Object2" data-name="Vector Smart Object2" transform="translate(-131.494 -1297.494)">
    <g id="Vector_Smart_Object2-2" data-name="Vector Smart Object2" transform="translate(131.494 1297.494)">
      <path id="Path_9" data-name="Path 9" d="M54.255,86.429H67.228a8.13,8.13,0,0,0,8.122-8.121V53.276h1.862a6.847,6.847,0,0,0,4.873-11.657l-.042-.042L48.894,8.435a6.846,6.846,0,0,0-9.683,0L6.04,41.6A6.842,6.842,0,0,0,10.6,53.265l.034,0c.057.006.113.008.169.008h1.957V78.309a8.13,8.13,0,0,0,8.122,8.121H33.85A1.747,1.747,0,0,0,35.6,84.684V65.557a4.637,4.637,0,0,1,4.633-4.631h7.651a4.637,4.637,0,0,1,4.632,4.631V84.684A1.747,1.747,0,0,0,54.255,86.429ZM47.878,57.436H40.228A8.131,8.131,0,0,0,32.1,65.557V82.94H20.878a4.636,4.636,0,0,1-4.631-4.631V51.532A1.747,1.747,0,0,0,14.5,49.786H10.917l-.083,0a3.355,3.355,0,0,1-2.326-5.712l.021-.021L41.681,10.9a3.355,3.355,0,0,1,4.745,0l33.16,33.155a3.365,3.365,0,0,1,0,4.746h0a3.335,3.335,0,0,1-2.374.983H73.6a1.747,1.747,0,0,0-1.745,1.745V78.309a4.636,4.636,0,0,1-4.631,4.631H56V65.557A8.131,8.131,0,0,0,47.878,57.436Z" transform="translate(-4.053 -6.429)" fill="#dfb400"/>
    </g>
    <path id="Color_Overlay" data-name="Color Overlay" d="M50.2,80a1.746,1.746,0,0,1-1.744-1.745V59.127A4.637,4.637,0,0,0,43.826,54.5H36.175a4.637,4.637,0,0,0-4.632,4.631V78.255A1.747,1.747,0,0,1,29.8,80H16.825A8.13,8.13,0,0,1,8.7,71.879V46.847H6.746c-.057,0-.112,0-.169-.008l-.034,0A6.842,6.842,0,0,1,1.987,35.173L35.159,2.006a6.844,6.844,0,0,1,9.682,0L77.99,35.148l.041.042a6.847,6.847,0,0,1-4.873,11.657H71.3V71.879A8.13,8.13,0,0,1,63.175,80Z" transform="translate(131.494 1297.494)" fill="#dfb400"/>
  </g>
</svg>
