<svg xmlns="http://www.w3.org/2000/svg" width="73.986" height="80" viewBox="0 0 73.986 80">
  <path id="Color_Overlay" data-name="Color Overlay" d="M24.055,70.335l-.174-.785H5.59A5.375,5.375,0,0,1,0,64.435a4.941,4.941,0,0,1,1.95-3.886A23.566,23.566,0,0,0,11.42,41.925V32.213c0-11.622,9.3-21.291,21.454-23.1a5.332,5.332,0,1,1,7.551-.093C52.908,10.56,62.566,20.374,62.566,32.213v9.712A23.53,23.53,0,0,0,72,60.524a4.974,4.974,0,0,1,1.989,3.911A5.375,5.375,0,0,1,68.4,69.55H50.106l-.176.785C48.685,75.935,43.243,80,36.994,80S25.3,75.935,24.055,70.335Zm3.856.522a9.644,9.644,0,0,0,9.083,5.878,9.642,9.642,0,0,0,9.081-5.878l.507-1.306H27.4ZM14.988,32.213v9.712a26.683,26.683,0,0,1-10.7,21.1,1.78,1.78,0,0,0-.716,1.413,1.945,1.945,0,0,0,2.022,1.85H68.4a1.969,1.969,0,0,0,2.022-1.85,1.782,1.782,0,0,0-.716-1.41A26.7,26.7,0,0,1,59,41.925V32.213c0-11.1-9.871-20.138-22-20.138S14.988,21.11,14.988,32.213Z" fill="#717a94"/>
</svg>
