<svg xmlns="http://www.w3.org/2000/svg" width="80" height="80" viewBox="0 0 80 80">
  <g id="Group_1795" data-name="Group 1795" transform="translate(-3222 -20062)">
    <g id="Subtraction_2" data-name="Subtraction 2" transform="translate(3222 20062)" fill="none">
      <path d="M40,80A40.011,40.011,0,0,1,24.43,3.143a40.01,40.01,0,0,1,31.14,73.713A39.749,39.749,0,0,1,40,80Zm0-62A13,13,0,1,0,53,31,13.014,13.014,0,0,0,40,18Z" stroke="none"/>
      <path d="M 39.99959564208984 76.60010528564453 C 44.94206237792969 76.60010528564453 49.73491668701172 75.63285064697266 54.2449951171875 73.72523498535156 C 58.60298156738281 71.88191986083984 62.51755523681641 69.24239349365234 65.87996673583984 65.87995910644531 C 69.24239349365234 62.51755523681641 71.88191986083984 58.60298156738281 73.7252197265625 54.2449951171875 C 75.63285064697266 49.73491668701172 76.60010528564453 44.94206237792969 76.60010528564453 39.99959564208984 C 76.60010528564453 35.05715560913086 75.63286590576172 30.26435661315918 73.72523498535156 25.75436973571777 C 71.88197326660156 21.39654350280762 69.24244689941406 17.48207664489746 65.88001251220703 14.11971664428711 C 62.51755523681641 10.75738334655762 58.60299682617188 8.117956161499023 54.24503707885742 6.27476978302002 C 49.73497009277344 4.367209434509277 44.94210433959961 3.399996280670166 39.99959564208984 3.399996280670166 C 35.05710220336914 3.399996280670166 30.26428985595703 4.367209434509277 25.75431632995605 6.27476978302002 C 21.3964900970459 8.117942810058594 17.48202323913574 10.75735664367676 14.11968994140625 14.11967658996582 C 10.75735664367676 17.48202323913574 8.117942810058594 21.3964900970459 6.27475643157959 25.75432968139648 C 4.367209434509277 30.26428985595703 3.399996280670166 35.05710220336914 3.399996280670166 39.99959564208984 C 3.399996280670166 44.94210433959961 4.367209434509277 49.73497009277344 6.27476978302002 54.24504852294922 C 8.117956161499023 58.60299682617188 10.75738334655762 62.51755523681641 14.11971664428711 65.87999725341797 C 17.48207664489746 69.24244689941406 21.39654350280762 71.88197326660156 25.75435638427734 73.72523498535156 C 30.26435661315918 75.63286590576172 35.05715560913086 76.60010528564453 39.99959564208984 76.60010528564453 M 39.99959564208984 14.59999656677246 C 49.04286193847656 14.59999656677246 56.40010452270508 21.95682334899902 56.40010452270508 30.99959564208984 C 56.40010452270508 40.04286193847656 49.04286193847656 47.40010452270508 39.99959564208984 47.40010452270508 C 30.95682334899902 47.40010452270508 23.59999656677246 40.04286193847656 23.59999656677246 30.99959564208984 C 23.59999656677246 21.95682334899902 30.95682334899902 14.59999656677246 39.99959564208984 14.59999656677246 M 39.99959564208984 80.00009918212891 C 34.59965133666992 80.00009918212891 29.3612232208252 78.94248962402344 24.42984962463379 76.85663604736328 C 19.66671562194824 74.84192657470703 15.38900947570801 71.95771789550781 11.71551609039307 68.28412628173828 C 8.042049407958984 64.61054229736328 5.157942771911621 60.33271789550781 3.143342971801758 55.56948852539062 C 1.057569622993469 50.6380615234375 -3.742268972928287e-06 45.39959716796875 -3.742268972928287e-06 39.99959564208984 C -3.742268972928287e-06 34.599609375 1.057569622993469 29.36118316650391 3.143342971801758 24.42984962463379 C 5.157942771911621 19.66672897338867 8.042049407958984 15.38900947570801 11.71551609039307 11.71551609039307 C 15.38900947570801 8.042049407958984 19.66672897338867 5.157942771911621 24.42984962463379 3.143342971801758 C 29.36118316650391 1.057569622993469 34.599609375 -3.742268972928287e-06 39.99959564208984 -3.742268972928287e-06 C 45.39959716796875 -3.742268972928287e-06 50.6380615234375 1.057569622993469 55.56948852539062 3.143342971801758 C 60.33271789550781 5.157942771911621 64.61054229736328 8.042049407958984 68.28412628173828 11.71551609039307 C 71.95771789550781 15.38900947570801 74.84192657470703 19.66671562194824 76.85663604736328 24.42984962463379 C 78.94248962402344 29.3612232208252 80.00009918212891 34.59965133666992 80.00009918212891 39.99959564208984 C 80.00009918212891 45.39957046508789 78.94248962402344 50.63803482055664 76.85663604736328 55.56948852539062 C 74.8419189453125 60.33272933959961 71.95771789550781 64.61055755615234 68.28412628173828 68.28412628173828 C 64.61055755615234 71.95771789550781 60.33272933959961 74.8419189453125 55.56948852539062 76.85663604736328 C 50.63803482055664 78.94248962402344 45.39957046508789 80.00009918212891 39.99959564208984 80.00009918212891 Z M 39.99959564208984 17.99999618530273 C 32.83159637451172 17.99999618530273 26.99999618530273 23.83159637451172 26.99999618530273 30.99959564208984 C 26.99999618530273 38.1681022644043 32.83159637451172 44.00010299682617 39.99959564208984 44.00010299682617 C 47.1681022644043 44.00010299682617 53.00010299682617 38.1681022644043 53.00010299682617 30.99959564208984 C 53.00010299682617 23.83159637451172 47.1681022644043 17.99999618530273 39.99959564208984 17.99999618530273 Z" stroke="none" fill="#717a94"/>
    </g>
    <g id="Intersection_2" data-name="Intersection 2" transform="translate(3232.628 20116.211)" fill="none">
      <path d="M0,12.791a39.794,39.794,0,0,1,58.461,0,39.69,39.69,0,0,1-29.23,12.791A39.691,39.691,0,0,1,0,12.791Z" stroke="none"/>
      <path d="M 29.230712890625 22.18217658996582 C 34.39797973632812 22.18217658996582 39.38905715942383 21.12234306335449 44.06530380249023 19.03213310241699 C 47.58585357666016 17.4584846496582 50.79283142089844 15.36578178405762 53.63422012329102 12.79127407073975 C 50.79282379150391 10.21667671203613 47.58580780029297 8.123856544494629 44.06525802612305 6.55016565322876 C 39.38901138305664 4.459866046905518 34.39795684814453 3.399999141693115 29.230712890625 3.399999141693115 C 24.06333541870117 3.399999141693115 19.07215690612793 4.459866046905518 14.39581298828125 6.550177097320557 C 10.87518501281738 8.123876571655273 7.668128967285156 10.21668148040771 4.826725482940674 12.7912712097168 C 7.668121337890625 15.36577129364014 10.87513160705566 17.45847320556641 14.3957691192627 19.0321216583252 C 19.07211303710938 21.12234306335449 24.06331253051758 22.18217658996582 29.230712890625 22.18217658996582 M 29.230712890625 25.58217620849609 C 17.67553520202637 25.58217620849609 7.269779682159424 20.65639877319336 2.083333356495132e-06 12.79131031036377 C 7.269779682159424 4.92598819732666 17.67553520202637 -7.846408607292688e-07 29.230712890625 -7.846408607292688e-07 C 40.78564834594727 -7.846408607292688e-07 51.19115829467773 4.92598819732666 58.46093368530273 12.79131031036377 C 51.19115829467773 20.65639877319336 40.78564834594727 25.58217620849609 29.230712890625 25.58217620849609 Z" stroke="none" fill="#717a94"/>
    </g>
  </g>
</svg>
