<svg id="shopping-cart" xmlns="http://www.w3.org/2000/svg" width="80" height="80" viewBox="0 0 80 80">
  <g id="Group_233" data-name="Group 233">
    <g id="Group_232" data-name="Group 232">
      <path id="Path_902" data-name="Path 902" d="M74.144,7.175h-59.6v.515L13.8,5.167A7.3,7.3,0,0,0,6.818,0h-5A1.805,1.805,0,0,0,0,1.794,1.805,1.805,0,0,0,1.818,3.587h5a3.646,3.646,0,0,1,3.491,2.584L21.626,44.449l-5.8,7.15a5.749,5.749,0,0,0-1.282,3.608A5.822,5.822,0,0,0,20.4,60.985H70.909a1.794,1.794,0,1,0,0-3.587H20.4a2.208,2.208,0,0,1-2.219-2.19,2.171,2.171,0,0,1,.486-1.368l5.843-7.2H60.174a7.313,7.313,0,0,0,6.582-4.12l12.688-26.6A5.759,5.759,0,0,0,80,13.459v-.508A5.822,5.822,0,0,0,74.144,7.175Zm2.219,6.285a2.169,2.169,0,0,1-.211.932l-12.686,26.6a3.659,3.659,0,0,1-3.292,2.06H25L15.454,10.762h58.69a2.208,2.208,0,0,1,2.219,2.19Z" fill="#717a94"/>
      <path id="Path_903" data-name="Path 903" d="M92.939,384a7.606,7.606,0,1,0,7.606,7.606A7.614,7.614,0,0,0,92.939,384Zm0,11.409a3.8,3.8,0,1,1,3.8-3.8A3.808,3.808,0,0,1,92.939,395.409Z" transform="translate(-70.936 -319.212)" fill="#717a94"/>
      <path id="Path_904" data-name="Path 904" d="M348.939,384a7.606,7.606,0,1,0,7.606,7.606A7.614,7.614,0,0,0,348.939,384Zm0,11.409a3.8,3.8,0,1,1,3.8-3.8A3.808,3.808,0,0,1,348.939,395.409Z" transform="translate(-284.151 -319.212)" fill="#717a94"/>
    </g>
  </g>
</svg>
