<svg xmlns="http://www.w3.org/2000/svg" width="87.236" height="64" viewBox="0 0 87.236 64">
  <g id="Group_451" data-name="Group 451" transform="translate(-212.382 17.742)">
    <path id="Path_1117" data-name="Path 1117" d="M255.07,14.564a1.661,1.661,0,0,0,2.295-.291L270.658-2.343a1.661,1.661,0,0,0-.259-2.336,1.662,1.662,0,0,0-2.336.259l-12.3,15.36-5.349-4.02a1.662,1.662,0,1,0-1.994,2.659Zm0,0" fill="#fff"/>
    <path id="Path_1118" data-name="Path 1118" d="M294.672,15.512l-7.633-3.486L280.3,1.278a10.583,10.583,0,0,0-2.639-2.868V-8.9a1.662,1.662,0,0,0-1-1.525l-16.616-7.178a1.654,1.654,0,0,0-1.316,0l-16.617,7.178a1.659,1.659,0,0,0-1,1.525V1.4l-8,10.47-14.507,3.972a8.506,8.506,0,0,0-6.231,8.2V29.59a8.5,8.5,0,0,0,8.432,8.568h1.246a10.813,10.813,0,0,0,20.932,0h24.925a10.813,10.813,0,0,0,20.933,0h2.336a8.5,8.5,0,0,0,8.432-8.568V23.262A8.486,8.486,0,0,0,294.672,15.512ZM244.429-7.812l14.955-6.458,14.955,6.458v18.57a6.941,6.941,0,0,1-2.94,5.634l-12.015,8.544-12.015-8.554a6.936,6.936,0,0,1-2.94-5.624ZM232.516,42.325a6.913,6.913,0,1,1,6.913-6.913A6.914,6.914,0,0,1,232.516,42.325Zm45.858,0a6.913,6.913,0,1,1,6.912-6.913A6.914,6.914,0,0,1,278.374,42.325Zm12.812-8.061h-2.064a10.814,10.814,0,0,0-21.5,0h-24.36a10.814,10.814,0,0,0-21.5,0h-.974a4.6,4.6,0,0,1-4.537-4.674V24.041a4.587,4.587,0,0,1,3.369-4.459l15.169-4.148a1.9,1.9,0,0,0,1.032-.7l5.293-6.94v2.965a10.269,10.269,0,0,0,4.32,8.331l12.981,9.24a1.66,1.66,0,0,0,1.927,0l12.981-9.24a10.27,10.27,0,0,0,4.333-8.331V4.382l6.4,10.215a1.925,1.925,0,0,0,.838.74l8.139,3.719a4.585,4.585,0,0,1,2.668,4.206V29.59h.019A4.6,4.6,0,0,1,291.186,34.264Z" fill="#fff"/>
    <path id="Path_1119" data-name="Path 1119" d="M241.591,3.887" fill="#fff" stroke="#000" stroke-miterlimit="10" stroke-width="1"/>
    <path id="Path_1120" data-name="Path 1120" d="M242.3,2.524" fill="#fff" stroke="#000" stroke-miterlimit="10" stroke-width="1"/>
    <path id="Path_1121" data-name="Path 1121" d="M283.845,12.455,282.093,7,277.03.771l-1.752,4.562V14.9L260.284,26.669l-12.525-7.346-3.33-4.426L242.3,10.313V2.524l-6.547,10.32-16.941,4.284-4.479,3.894V34.264l6.621,1.148a17.207,17.207,0,0,0,2.337-2.122c.584-.779,2.317-4.089,2.317-4.089a2.9,2.9,0,0,1,2.161-1.947c1.753-.39.779-.585,3.116-.585s2.921-.194,3.894.195-.194-.195.974.39,2.553.887,2.337,2.336,1.518.015,1.343,2.142,2.162,3.68,2.162,3.68h6.168l21.677-1.148,6.231-7.984,5.647.584,3.972,2.921,1.091,3.505.973,2.122,3.116,1.578,4.673-1.578,1.947-4.848V18.3l-10.9-3.4Z" fill="#fff"/>
  </g>
</svg>
