<svg xmlns="http://www.w3.org/2000/svg" xmlns:xlink="http://www.w3.org/1999/xlink" width="60.667" height="64" viewBox="0 0 60.667 64">
  <defs>
    <clipPath id="clip-path">
      <rect id="Rectangle_228" data-name="Rectangle 228" width="60.667" height="64" transform="translate(480.667 480)" fill="#fff"/>
    </clipPath>
  </defs>
  <g id="Group_454" data-name="Group 454" transform="translate(-480.667 -480)">
    <g id="Group_453" data-name="Group 453">
      <g id="Group_452" data-name="Group 452" clip-path="url(#clip-path)">
        <path id="Path_1122" data-name="Path 1122" d="M507,510.859a3.428,3.428,0,1,0,3.429,3.428A3.428,3.428,0,0,0,507,510.859Zm0,4.571a1.142,1.142,0,1,1,1.143-1.143A1.143,1.143,0,0,1,507,515.43Zm0,0" fill="#fff"/>
        <path id="Path_1123" data-name="Path 1123" d="M533.283,514.287a26.313,26.313,0,1,0-9.142,19.91v1.232a8.571,8.571,0,0,0,17.142,0V507.7a3.407,3.407,0,0,0-1.9-3.067l-4.33-2.165a1.135,1.135,0,0,1-.631-1.022v-1.07a3.433,3.433,0,0,0,2.285-3.232v-1.916a8,8,0,1,0-6.857,0v1.916a3.434,3.434,0,0,0,2.286,3.232v1.07a3.406,3.406,0,0,0,1.9,3.066l4.33,2.165A1.136,1.136,0,0,1,539,507.7v27.728a6.285,6.285,0,0,1-12.57,0v-3.456a26.178,26.178,0,0,0,6.856-17.686ZM527.57,488a5.714,5.714,0,1,1,5.713,5.714A5.713,5.713,0,0,1,527.57,488Zm5.713,10.285a1.143,1.143,0,0,1-1.142-1.143v-1.226a7.819,7.819,0,0,0,2.286,0v1.226a1.145,1.145,0,0,1-1.144,1.143Zm-6.856,30.071v-3.58a1.148,1.148,0,0,0,.194.017,1.184,1.184,0,0,0,.223-.022l1.919-.38a24.031,24.031,0,0,1-2.336,3.965Zm-12.208-14.666a1.668,1.668,0,0,1-.3,0,1.142,1.142,0,0,0-1.229,1.049h0a5.641,5.641,0,0,1-.82,2.518,1.142,1.142,0,0,0,.379,1.571h0a1.762,1.762,0,0,1,.243.178l3.987,3.524a12.643,12.643,0,0,1-4.561,3.32l-2.122-4.886a1.719,1.719,0,0,1-.094-.284,1.143,1.143,0,0,0-1.376-.846,5.508,5.508,0,0,1-2.652,0,1.144,1.144,0,0,0-1.376.846,1.632,1.632,0,0,1-.094.284l-2.122,4.886a12.631,12.631,0,0,1-4.56-3.32l3.987-3.524a1.7,1.7,0,0,1,.242-.178,1.142,1.142,0,0,0,.379-1.571,5.64,5.64,0,0,1-.819-2.518,1.144,1.144,0,0,0-1.23-1.049,1.669,1.669,0,0,1-.3,0l-5.3-.508a12.47,12.47,0,0,1,1.746-5.365l4.585,2.7a1.828,1.828,0,0,1,.243.175,1.142,1.142,0,0,0,1.61-.125,5.756,5.756,0,0,1,2.143-1.563,1.142,1.142,0,0,0,.617-1.491,1.75,1.75,0,0,1-.089-.283l-1.156-5.2a12.617,12.617,0,0,1,5.643,0l-1.156,5.2a1.656,1.656,0,0,1-.089.283,1.142,1.142,0,0,0,.617,1.491,5.744,5.744,0,0,1,2.142,1.563,1.143,1.143,0,0,0,1.611.125,1.826,1.826,0,0,1,.243-.175l4.585-2.7a12.471,12.471,0,0,1,1.747,5.365Zm5.294,1.789a12.488,12.488,0,0,1-1.69,5.192l-3.528-3.118a7.875,7.875,0,0,0,.529-1.625Zm-9.782,11.076a12.584,12.584,0,0,1-5.463,0l1.876-4.32a7.522,7.522,0,0,0,1.71,0Zm-13.555-5.884a12.475,12.475,0,0,1-1.69-5.192l4.689.449a7.814,7.814,0,0,0,.528,1.625Zm1.407-14.705A12.635,12.635,0,0,1,502,502.756l1.022,4.6a8.091,8.091,0,0,0-1.382,1.007Zm13.4,1.382,1.021-4.6a12.617,12.617,0,0,1,4.413,3.213l-4.052,2.39a8.022,8.022,0,0,0-1.382-1.007Zm14.3,8.079h-3.428v-2.285h3.428a1.142,1.142,0,1,1,0,2.285Zm0,0" fill="#fff"/>
      </g>
    </g>
    <path id="Path_1124" data-name="Path 1124" d="M535,488a1.8,1.8,0,0,0-.009-.181,1.144,1.144,0,0,0,.315-.222l1.074-1.075a1.142,1.142,0,1,0-1.616-1.615l-1.074,1.074a1.158,1.158,0,0,0-.222.315,1.57,1.57,0,0,0-.182-.01A1.714,1.714,0,1,0,535,488Zm0,0" fill="#fff"/>
  </g>
</svg>
