<svg xmlns="http://www.w3.org/2000/svg" width="77.204" height="64.338" viewBox="0 0 77.204 64.338">
  <g id="Group_442" data-name="Group 442" transform="translate(59 -128)">
    <path id="Path_1102" data-name="Path 1102" d="M14.172,311.107l-15.926-2.654-4.615-6.921a6.424,6.424,0,0,0-5.353-2.865H-35.508a6.423,6.423,0,0,0-5.353,2.865l-4.656,6.983-9.83,2.457A4.821,4.821,0,0,0-59,315.653v8.083a7.05,7.05,0,0,0,2.08,5.02,7.053,7.053,0,0,0,5.02,2.08h4.322a8.054,8.054,0,0,0,7.879,6.434,8.054,8.054,0,0,0,7.879-6.434h21.235A8.054,8.054,0,0,0-2.7,337.269a8.054,8.054,0,0,0,7.879-6.434h7.211a3.2,3.2,0,0,0,2.878-1.778l2.6-5.205a1.963,1.963,0,0,0,.137-.4l.159-.666a1.71,1.71,0,0,0,.044-.377v-6.547A4.814,4.814,0,0,0,14.172,311.107ZM-39.7,334.052a4.831,4.831,0,0,1-4.825-4.825A4.831,4.831,0,0,1-39.7,324.4a4.831,4.831,0,0,1,4.825,4.825A4.831,4.831,0,0,1-39.7,334.052Zm36.994,0a4.831,4.831,0,0,1-4.825-4.825A4.831,4.831,0,0,1-2.705,324.4a4.831,4.831,0,0,1,4.825,4.825A4.831,4.831,0,0,1-2.705,334.052Z" transform="translate(0 -144.932)" fill="#fff"/>
    <path id="Path_1103" data-name="Path 1103" d="M49.274,131.217H91.093a1.608,1.608,0,1,0,0-3.217H49.274a1.608,1.608,0,0,0,0,3.217Z" transform="translate(-90.582)" fill="#fff"/>
    <path id="Path_1104" data-name="Path 1104" d="M72.5,171.61c-1.054,1.524-3.5,5.29-3.5,7.348a4.825,4.825,0,0,0,9.651,0c0-2.058-2.449-5.824-3.5-7.348A1.67,1.67,0,0,0,72.5,171.61Z" transform="translate(-108.699 -36.482)" fill="#fff"/>
    <path id="Path_1105" data-name="Path 1105" d="M157.837,192.943c-1.054,1.524-3.5,5.29-3.5,7.348a4.825,4.825,0,0,0,9.651,0c0-2.058-2.449-5.824-3.5-7.348A1.67,1.67,0,0,0,157.837,192.943Z" transform="translate(-181.165 -54.598)" fill="#fff"/>
    <path id="Path_1106" data-name="Path 1106" d="M243.17,171.61c-1.054,1.524-3.5,5.29-3.5,7.348a4.825,4.825,0,0,0,9.651,0c0-2.058-2.449-5.824-3.5-7.348A1.67,1.67,0,0,0,243.17,171.61Z" transform="translate(-253.631 -36.482)" fill="#fff"/>
  </g>
</svg>
