<svg xmlns="http://www.w3.org/2000/svg" width="76.799" height="64" viewBox="0 0 76.799 64">
  <g id="Group_443" data-name="Group 443" transform="translate(0 -42.666)">
    <path id="Path_1107" data-name="Path 1107" d="M72.787,226.217l-15.841-2.749L52.356,216.3a6.327,6.327,0,0,0-5.325-2.967H23.369a6.327,6.327,0,0,0-5.325,2.967l-4.631,7.233-9.775,2.544A4.957,4.957,0,0,0,0,230.924v8.368a7.457,7.457,0,0,0,2.069,5.2,6.976,6.976,0,0,0,4.994,2.153h4.3a8.1,8.1,0,0,0,7.838,6.662,8.1,8.1,0,0,0,7.838-6.662H48.161a7.942,7.942,0,0,0,15.676,0h7.171a3.174,3.174,0,0,0,2.866-1.841l2.587-5.39a1.7,1.7,0,0,0,.128-.368l.169-.745a1.7,1.7,0,0,0,.041-.377v-6.777A4.924,4.924,0,0,0,72.787,226.217ZM19.2,249.975a5,5,0,0,1,0-9.993,5,5,0,0,1,0,9.993Zm36.8,0a5,5,0,1,1,4.8-5A4.907,4.907,0,0,1,56,249.975Z" transform="translate(0 -146.64)" fill="#fff"/>
    <path id="Path_1108" data-name="Path 1108" d="M27.706,62.652H63.812a8.059,8.059,0,0,1,5.847,2.695,12.313,12.313,0,0,0,9.034,3.967,12.806,12.806,0,0,0,11.978-8.893,1.728,1.728,0,0,0-.3-1.644,1.56,1.56,0,0,0-1.516-.546l-5.107,1.051-.006,0a1.794,1.794,0,0,1-1.684-.53l-.389-.407a5.143,5.143,0,0,1-.946-5.592,1.84,1.84,0,0,1,1.214-1l5.72-1.522a1.627,1.627,0,0,0,1.123-1.095,1.723,1.723,0,0,0-.286-1.576,12.472,12.472,0,0,0-9.806-4.9,12.313,12.313,0,0,0-9.034,3.967,8.059,8.059,0,0,1-5.847,2.695H27.706a6.669,6.669,0,0,0,0,13.324Z" transform="translate(-18.002)" fill="#fff"/>
  </g>
</svg>
