<svg xmlns="http://www.w3.org/2000/svg" width="127.405" height="115.6" viewBox="0 0 127.405 115.6">
  <g id="Union_8" data-name="Union 8" fill="#dfb400">
    <path d="M 97.24859619140625 115.1005020141602 L 2.999699831008911 115.1005020141602 C 1.621366500854492 115.1005020141602 0.4999997913837433 113.9787368774414 0.4999997913837433 112.5998992919922 L 0.4999997913837433 2.999701023101807 C 0.4999997913837433 1.621367692947388 1.621366500854492 0.5000010132789612 2.999699831008911 0.5000010132789612 L 97.24859619140625 0.5000010132789612 C 98.02681732177734 0.5000010132789612 98.74725341796875 0.8529843688011169 99.22518157958984 1.46843433380127 L 100.0388793945312 2.516262769699097 L 126.8495788574219 57.99961090087891 L 100.1201019287109 113.3157501220703 L 100.1201019287109 112.9786376953125 L 99.22513580322266 114.1315536499023 C 98.74713134765625 114.7473373413086 98.02671813964844 115.1005020141602 97.24859619140625 115.1005020141602 Z" stroke="none"/>
    <path d="M 97.24861907958984 114.6005020141602 C 97.87111663818359 114.6005020141602 98.44757843017578 114.3178329467773 98.8302001953125 113.8249588012695 L 100.1243057250977 112.1579055786133 L 126.2942962646484 57.99958801269531 L 99.61170196533203 2.781373739242554 L 98.83028411865234 1.775125980377197 C 98.44773864746094 1.282542705535889 97.87123870849609 1.000000953674316 97.24861907958984 1.000000953674316 L 2.999699831008911 1.000000953674316 C 1.897074818611145 1.000000953674316 0.9999914765357971 1.897084355354309 0.9999914765357971 2.999709367752075 L 0.9999914765357971 112.5999145507812 C 0.9999914765357971 113.7030410766602 1.897074818611145 114.6005020141602 2.999699831008911 114.6005020141602 L 97.24861907958984 114.6005020141602 M 97.24861907958984 115.6005020141602 L 2.999699831008911 115.6005020141602 C 1.342783093452454 115.6005020141602 -8.534749213140458e-06 114.2567901611328 -8.534749213140458e-06 112.5999145507812 L -8.534749213140458e-06 2.999709367752075 C -8.534749213140458e-06 1.342792630195618 1.342783093452454 1.007080072668032e-06 2.999699831008911 1.007080072668032e-06 L 97.24861907958984 1.007080072668032e-06 C 98.21295166015625 1.007080072668032e-06 99.07111358642578 0.4548343420028687 99.6201171875 1.161792635917664 L 99.6201171875 0.5004176497459412 L 127.4049072265625 57.99958419799805 L 99.6201171875 115.4997100830078 L 99.6201171875 114.4381713867188 C 99.07111358642578 115.145378112793 98.21295166015625 115.6005020141602 97.24861907958984 115.6005020141602 Z" stroke="none" fill="#dfb400"/>
  </g>
</svg>
