<svg id="Group_120" data-name="Group 120" xmlns="http://www.w3.org/2000/svg" width="40.013" height="40" viewBox="0 0 40.013 40">
  <path id="Path_529" data-name="Path 529" d="M20,0H34.755a7.385,7.385,0,0,1,2.932.522,3.562,3.562,0,0,1,1.938,4.97A7.177,7.177,0,0,1,37.886,7.8c-3.851,3.6-7.7,7.181-11.554,10.784a.919.919,0,0,0-.323.77c0,3.578,0,7.156.025,10.734a2.244,2.244,0,0,1-.745,1.739c-2.684,2.46-5.317,4.994-8,7.479a2.716,2.716,0,0,1-1.168.646c-1.267.248-2.137-.547-2.137-1.938V30.339c0-3.7,0-7.4-.025-11.107a.953.953,0,0,0-.273-.621c-3.8-3.6-7.653-7.181-11.5-10.759A7,7,0,0,1,.267,5.218,3.5,3.5,0,0,1,1.931.7,6.049,6.049,0,0,1,4.714.025C8.069,0,11.4,0,14.753,0ZM17.809,33.3c.174-.149.3-.248.4-.348,1.242-1.168,2.485-2.336,3.7-3.528a1.107,1.107,0,0,0,.3-.721c.025-3.3.05-6.634,0-9.939A3.444,3.444,0,0,1,23.375,16C27.326,12.324,31.2,8.6,35.1,4.87c.248-.224.447-.472.721-.77-1.093-.224-30.985-.174-31.631.05.273.273.5.547.745.8,4,3.8,7.976,7.578,11.977,11.355a2.618,2.618,0,0,1,.87,2.037c-.025,4.82,0,9.616,0,14.436C17.784,32.923,17.809,33.072,17.809,33.3Z" transform="translate(0.009)" fill="#b6bac1"/>
</svg>
