<svg xmlns="http://www.w3.org/2000/svg" width="38" height="38" viewBox="0 0 38 38">
  <path id="phone" d="M36.2,1.783,28.716.053A2.325,2.325,0,0,0,26.059,1.4L22.608,9.449a2.327,2.327,0,0,0,.661,2.709l4,3.273A25.976,25.976,0,0,1,15.424,27.276l-3.273-4a2.327,2.327,0,0,0-2.709-.661L1.4,26.067a2.316,2.316,0,0,0-1.343,2.65L1.775,36.19a2.318,2.318,0,0,0,2.264,1.8A33.947,33.947,0,0,0,37.994,4.039,2.3,2.3,0,0,0,36.2,1.783ZM4.083,35.619,2.376,28.226l7.971-3.414,4.416,5.4c7.689-3.607,11.853-7.785,15.445-15.445l-5.4-4.416,3.414-7.971,7.392,1.707A31.562,31.562,0,0,1,4.083,35.619Z" transform="translate(0.006 0.006)" fill="#222"/>
</svg>
