<svg xmlns="http://www.w3.org/2000/svg" width="51.413" height="46.587" viewBox="0 0 51.413 46.587">
  <g id="Party" transform="translate(-7.3 -31.313)">
    <g id="gift" transform="translate(8.3 32.34)">
      <g id="Group_543" data-name="Group 543" transform="translate(0 0)">
        <path id="Fill-1" d="M92.176,218.745H54.425A1.122,1.122,0,0,1,53.3,217.62V193.2h40v24.42A1.122,1.122,0,0,1,92.176,218.745Z" transform="translate(-48.594 -174.186)" fill="#ff224c"/>
        <path id="Fill-3" d="M55.475,112H8.538A1.238,1.238,0,0,0,7.3,113.248v5.811a1.244,1.244,0,0,0,1.238,1.248H55.475a1.238,1.238,0,0,0,1.238-1.248v-5.811A1.238,1.238,0,0,0,55.475,112" transform="translate(-7.3 -101.293)" fill="#ff224c"/>
        <path id="Fill-5" d="M53.4,195.584H93.391V193.2H53.4Z" transform="translate(-48.684 -174.186)" fill="#ce1d47"/>
        <path id="Fill-7" d="M210.9,218.745h7.765V193.2H210.9Z" transform="translate(-190.071 -174.186)" fill="#ffca36"/>
        <path id="Fill-8" d="M210.9,195.584h7.765V193.2H210.9Z" transform="translate(-190.071 -174.186)" fill="#e8b434"/>
        <path id="Fill-9" d="M196.8,120.307h10.65V112H196.8Z" transform="translate(-177.413 -101.293)" fill="#ffca36"/>
        <path id="Fill-10" d="M219.9,71.6h5.923V67H219.9Z" transform="translate(-198.15 -60.896)" fill="#ffca36"/>
        <path id="Fill-11" d="M91.816,13.443S84.992,4.768,80,8.1s-1.739,9.954-1.739,9.954H91.816Z" transform="translate(-70.066 -7.34)" fill="#ffca36"/>
        <path id="Fill-12" d="M277.8,13.443s6.824-8.675,11.816-5.34,1.739,9.954,1.739,9.954H277.8Z" transform="translate(-250.127 -7.34)" fill="#ffca36"/>
        <path id="Stroke-13" d="M92.176,218.745H54.425A1.122,1.122,0,0,1,53.3,217.62V193.2h40v24.42A1.122,1.122,0,0,1,92.176,218.745Z" transform="translate(-48.594 -174.186)" fill="none" stroke="#000" stroke-linecap="round" stroke-linejoin="round" stroke-width="2"/>
        <path id="Stroke-14" d="M210.9,218.745h7.765V193.2H210.9Z" transform="translate(-190.071 -174.186)" fill="none" stroke="#000" stroke-linecap="round" stroke-linejoin="round" stroke-width="2"/>
        <path id="Stroke-15" d="M196.8,120.307h10.65V112H196.8Z" transform="translate(-177.413 -101.293)" fill="none" stroke="#000" stroke-linecap="round" stroke-linejoin="round" stroke-width="2"/>
        <path id="Stroke-16" d="M55.475,112H8.538A1.238,1.238,0,0,0,7.3,113.248v5.811a1.244,1.244,0,0,0,1.238,1.248H55.475a1.238,1.238,0,0,0,1.238-1.248v-5.811A1.238,1.238,0,0,0,55.475,112Z" transform="translate(-7.3 -101.293)" fill="none" stroke="#000" stroke-linecap="round" stroke-linejoin="round" stroke-width="2"/>
        <path id="Stroke-17" d="M219.9,71.6h5.923V67H219.9Z" transform="translate(-198.15 -60.896)" fill="none" stroke="#000" stroke-linecap="round" stroke-linejoin="round" stroke-width="2"/>
        <path id="Stroke-18" d="M91.816,13.443S84.992,4.768,80,8.1s-1.739,9.954-1.739,9.954H91.816Z" transform="translate(-70.066 -7.34)" fill="none" stroke="#000" stroke-linecap="round" stroke-linejoin="round" stroke-width="2"/>
        <path id="Fill-19" d="M87.4,71.525s.225-4.368,3.407-4.6,10.149,4.6,10.149,4.6Z" transform="translate(-79.205 -60.817)" fill="#ce8900"/>
        <path id="Fill-20" d="M291.355,71.525s-.225-4.368-3.407-4.6-10.149,4.6-10.149,4.6Z" transform="translate(-250.127 -60.817)" fill="#ce8900"/>
        <path id="Stroke-21" d="M87.4,71.525s.225-4.368,3.407-4.6,10.149,4.6,10.149,4.6Z" transform="translate(-79.205 -60.817)" fill="none" stroke="#000" stroke-linecap="round" stroke-linejoin="round" stroke-width="2"/>
        <path id="Stroke-22" d="M277.8,13.443s6.824-8.675,11.816-5.34,1.739,9.954,1.739,9.954H277.8Z" transform="translate(-250.127 -7.34)" fill="none" stroke="#000" stroke-linecap="round" stroke-linejoin="round" stroke-width="2"/>
        <path id="Stroke-23" d="M291.355,71.525s-.225-4.368-3.407-4.6-10.149,4.6-10.149,4.6Z" transform="translate(-250.127 -60.817)" fill="none" stroke="#000" stroke-linecap="round" stroke-linejoin="round" stroke-width="2"/>
      </g>
    </g>
  </g>
</svg>
