<svg xmlns="http://www.w3.org/2000/svg" width="63" height="84" viewBox="0 0 63 84">
  <path id="phone-volume" d="M15.969,83.174a54.514,54.514,0,0,1,0-77.1,2.821,2.821,0,0,1,3.488-.4l10.634,6.647a2.82,2.82,0,0,1,1.124,3.438L25.9,29.056A2.82,2.82,0,0,1,23,30.815L13.843,29.9a43.58,43.58,0,0,0,0,29.452L23,58.435a2.82,2.82,0,0,1,2.9,1.759l5.317,13.293a2.82,2.82,0,0,1-1.124,3.438L19.457,83.571A2.82,2.82,0,0,1,15.969,83.174ZM40.544,15.664a10.508,10.508,0,0,1,0,10.673,1.977,1.977,0,0,1-3.071.423l-.98-.939a1.984,1.984,0,0,1-.371-2.364,5.26,5.26,0,0,0,0-4.913,1.983,1.983,0,0,1,.371-2.364l.98-.939A1.977,1.977,0,0,1,40.544,15.664ZM55.6.7a31.545,31.545,0,0,1,0,40.594,1.976,1.976,0,0,1-2.88.153l-.951-.912a1.973,1.973,0,0,1-.153-2.687,26.288,26.288,0,0,0,0-33.7,1.972,1.972,0,0,1,.153-2.687L52.723.55A1.976,1.976,0,0,1,55.6.7ZM48.06,8.076a21.194,21.194,0,0,1,4.188,16.172,20.713,20.713,0,0,1-4.188,9.676,1.978,1.978,0,0,1-2.929.214l-.955-.915a1.967,1.967,0,0,1-.211-2.614,15.771,15.771,0,0,0,0-19.217,1.967,1.967,0,0,1,.211-2.614l.955-.915a1.978,1.978,0,0,1,2.929.214Z" transform="translate(0)" fill="red"/>
</svg>
