<svg xmlns="http://www.w3.org/2000/svg" width="44.912" height="40" viewBox="0 0 44.912 40">
  <path id="edit" d="M32.577,24.648l1.559-1.562a.465.465,0,0,1,.8.328V36.25A3.747,3.747,0,0,1,31.189,40H3.743A3.747,3.747,0,0,1,0,36.25V8.75A3.747,3.747,0,0,1,3.743,5H26.534a.467.467,0,0,1,.327.8L25.3,7.359a.481.481,0,0,1-.327.141H3.743A1.252,1.252,0,0,0,2.5,8.75v27.5A1.252,1.252,0,0,0,3.743,37.5H31.189a1.252,1.252,0,0,0,1.248-1.25V24.977A.438.438,0,0,1,32.577,24.648ZM43.953,9.711,19.587,34.125l-7.789.867A1.637,1.637,0,0,1,9.988,33.18l.865-7.8L35.22.961a3.271,3.271,0,0,1,4.632,0l4.1,4.109a3.286,3.286,0,0,1,0,4.641Zm-7.3,3.781-5.2-5.211L13.24,26.523l-.647,5.867,5.856-.648,18.207-18.25Zm5.536-6.656-4.1-4.109a.775.775,0,0,0-1.1,0L33.216,6.508l5.2,5.211,3.774-3.781a.779.779,0,0,0,0-1.1Z" fill="#717a94"/>
</svg>
