<svg xmlns="http://www.w3.org/2000/svg" width="54.5" height="33.539" viewBox="0 0 54.5 33.539">
  <path id="G_" data-name="G+" d="M17.291,33.539A17.452,17.452,0,0,1,5.064,28.628a16.415,16.415,0,0,1,0-23.716,17.679,17.679,0,0,1,23.893-.517l-5.1,4.838A10.375,10.375,0,0,0,17.291,6.9,10.039,10.039,0,0,0,7.112,16.769,10.039,10.039,0,0,0,17.291,26.64a10.23,10.23,0,0,0,9.517-6.368H17.073v-7H34.2a16.42,16.42,0,0,1-4.687,15.36A17.452,17.452,0,0,1,17.291,33.539ZM48.482,23.88H44.1V18.042H38.086V13.8H44.1V7.959h4.378V13.8H54.5v4.245H48.482v5.837Z" fill="#fff"/>
</svg>
