<svg xmlns="http://www.w3.org/2000/svg" width="64" height="64" viewBox="0 0 64 64">
  <path id="plus-circle" d="M56.516,39.226v1.548a1.553,1.553,0,0,1-1.548,1.548H42.323V54.968a1.553,1.553,0,0,1-1.548,1.548H39.226a1.553,1.553,0,0,1-1.548-1.548V42.323H25.032a1.553,1.553,0,0,1-1.548-1.548V39.226a1.553,1.553,0,0,1,1.548-1.548H37.677V25.032a1.553,1.553,0,0,1,1.548-1.548h1.548a1.553,1.553,0,0,1,1.548,1.548V37.677H54.968A1.553,1.553,0,0,1,56.516,39.226ZM72,40A32,32,0,1,1,40,8,31.994,31.994,0,0,1,72,40Zm-4.129,0A27.871,27.871,0,1,0,40,67.871,27.87,27.87,0,0,0,67.871,40Z" transform="translate(-8 -8)" opacity="0.64"/>
</svg>
