<svg xmlns="http://www.w3.org/2000/svg" width="30.28" height="17.331" viewBox="0 0 30.28 17.331">
  <g id="Y6tuoj.tif_1_" transform="translate(0.036 17.256) rotate(-90)" opacity="0.5">
    <g id="Group_28" data-name="Group 28" transform="translate(-0.075 -0.036)">
      <path id="Path_145" data-name="Path 145" d="M5.074,15.19a4.18,4.18,0,0,1,.548.375q5.461,5.446,10.9,10.892a2.17,2.17,0,1,1-3.093,3.032q-3.94-3.955-7.88-7.89C3.928,19.977,2.3,18.354.673,16.722a2.158,2.158,0,0,1,.01-3.276Q7.057,7.057,13.441.688a2.173,2.173,0,0,1,3.712.811,2.145,2.145,0,0,1-.629,2.262c-2.363,2.353-4.706,4.706-7.058,7.058C8.046,12.229,6.636,13.628,5.074,15.19Z" transform="translate(0.075 0.036)" fill="#4c65ba"/>
    </g>
  </g>
</svg>
