<svg xmlns="http://www.w3.org/2000/svg" width="35" height="40" viewBox="0 0 35 40">
  <path id="calendar-alt" d="M34.063,12.5H.938A.94.94,0,0,1,0,11.562V8.75A3.751,3.751,0,0,1,3.75,5H7.5V.938A.94.94,0,0,1,8.438,0h3.125A.94.94,0,0,1,12.5.938V5h10V.938A.94.94,0,0,1,23.438,0h3.125A.94.94,0,0,1,27.5.938V5h3.75A3.751,3.751,0,0,1,35,8.75v2.812A.94.94,0,0,1,34.063,12.5ZM.938,15H34.063a.94.94,0,0,1,.938.938V36.25A3.751,3.751,0,0,1,31.25,40H3.75A3.751,3.751,0,0,1,0,36.25V15.938A.94.94,0,0,1,.938,15ZM10,30.938A.94.94,0,0,0,9.063,30H5.938A.94.94,0,0,0,5,30.938v3.125A.94.94,0,0,0,5.938,35H9.063A.94.94,0,0,0,10,34.063Zm0-10A.94.94,0,0,0,9.063,20H5.938A.94.94,0,0,0,5,20.938v3.125A.94.94,0,0,0,5.938,25H9.063A.94.94,0,0,0,10,24.063Zm10,10A.94.94,0,0,0,19.063,30H15.938a.94.94,0,0,0-.937.938v3.125a.94.94,0,0,0,.938.938h3.125A.94.94,0,0,0,20,34.063Zm0-10A.94.94,0,0,0,19.063,20H15.938a.94.94,0,0,0-.937.938v3.125a.94.94,0,0,0,.938.938h3.125A.94.94,0,0,0,20,24.063Zm10,10A.94.94,0,0,0,29.063,30H25.938a.94.94,0,0,0-.937.938v3.125a.94.94,0,0,0,.938.938h3.125A.94.94,0,0,0,30,34.063Zm0-10A.94.94,0,0,0,29.063,20H25.938a.94.94,0,0,0-.937.938v3.125a.94.94,0,0,0,.938.938h3.125A.94.94,0,0,0,30,24.063Z" fill="#bcc3d8"/>
</svg>
