<svg xmlns="http://www.w3.org/2000/svg" width="40" height="40" viewBox="0 0 40 40">
  <path id="ic_perm_phone_msg_24px" d="M40.778,30.778a25.245,25.245,0,0,1-7.933-1.267,2.268,2.268,0,0,0-2.267.533l-4.889,4.889A33.5,33.5,0,0,1,11.044,20.311L15.933,15.4a2.181,2.181,0,0,0,.556-2.244,25.245,25.245,0,0,1-1.267-7.933A2.229,2.229,0,0,0,13,3H5.222A2.229,2.229,0,0,0,3,5.222,37.774,37.774,0,0,0,40.778,43,2.229,2.229,0,0,0,43,40.778V33A2.229,2.229,0,0,0,40.778,30.778ZM23,3V25.222l6.667-6.667H43V3Z" transform="translate(-3 -3)" fill="#dfb400"/>
</svg>
