<svg xmlns="http://www.w3.org/2000/svg" width="61.248" height="61.248" viewBox="0 0 61.248 61.248">
  <path id="icons8-zalo" d="M11.291,4A7.314,7.314,0,0,0,4,11.291V57.957a7.314,7.314,0,0,0,7.291,7.291H57.957a7.314,7.314,0,0,0,7.291-7.291V11.291A7.314,7.314,0,0,0,57.957,4Zm0,2.917h9.6A28.444,28.444,0,0,0,12.75,26.6a28.272,28.272,0,0,0,8.619,20.182,5.582,5.582,0,0,1-.35,3.543,4.921,4.921,0,0,1-2.9,3.062,1.454,1.454,0,0,0-.991,1.475,1.474,1.474,0,0,0,1.168,1.341,13.513,13.513,0,0,0,9.083-1.416c1.969-.9,3.268-1.517,5.266-.7A35.464,35.464,0,0,0,45.561,56.5a35,35,0,0,0,16.77-4.21v5.668a4.353,4.353,0,0,1-4.375,4.375H11.291a4.353,4.353,0,0,1-4.375-4.375V11.291A4.353,4.353,0,0,1,11.291,6.917Zm35,13.125A1.463,1.463,0,0,1,47.749,21.5V34.624a1.458,1.458,0,0,1-2.917,0V21.5A1.463,1.463,0,0,1,46.29,20.041ZM24.416,21.5h7.291a1.455,1.455,0,0,1,1.239,2.23l-5.9,9.436h4.665a1.458,1.458,0,1,1,0,2.917H24.416a1.455,1.455,0,0,1-1.239-2.23l5.9-9.436H24.416a1.458,1.458,0,0,1,0-2.917ZM38.27,25.874a5.094,5.094,0,0,1,2.464.655,1.432,1.432,0,0,1,1.182-.655,1.463,1.463,0,0,1,1.458,1.458v7.291a1.463,1.463,0,0,1-1.458,1.458,1.432,1.432,0,0,1-1.182-.655,5.1,5.1,0,1,1-2.464-9.553Zm16.041,0a5.1,5.1,0,1,1-5.1,5.1A5.11,5.11,0,0,1,54.311,25.874ZM38.27,28.791a2.2,2.2,0,0,0-.441.046,2.175,2.175,0,0,0-1.7,1.7,2.157,2.157,0,0,0,0,.883,2.156,2.156,0,0,0,.125.41,2.188,2.188,0,1,0,2.017-3.039Zm16.041,0a2.2,2.2,0,0,0-.441.046,2.156,2.156,0,0,0-.41.125,2.213,2.213,0,0,0-1.165,1.165,2.156,2.156,0,0,0-.125.41,2.157,2.157,0,0,0,0,.883,2.156,2.156,0,0,0,.125.41,2.191,2.191,0,0,0,.2.373,2.163,2.163,0,0,0,1.373.917,2.164,2.164,0,0,0,.883,0,2.187,2.187,0,0,0-.441-4.329Z" transform="translate(-4 -4)" fill="#fff"/>
</svg>
