<svg xmlns="http://www.w3.org/2000/svg" width="63.745" height="62.5" viewBox="0 0 63.745 62.5">
  <g id="Group_534" data-name="Group 534" transform="translate(-919.678 -106.5)">
    <g id="shopping-cart" transform="translate(921.178 108)">
      <circle id="Ellipse_132" data-name="Ellipse 132" cx="3.671" cy="3.671" r="3.671" transform="translate(18.136 52.658)" fill="none" stroke="#717a94" stroke-linecap="round" stroke-linejoin="round" stroke-width="2"/>
      <circle id="Ellipse_133" data-name="Ellipse 133" cx="3.671" cy="3.671" r="3.671" transform="translate(48.727 52.658)" fill="none" stroke="#717a94" stroke-linecap="round" stroke-linejoin="round" stroke-width="2"/>
      <path id="Path_1402" data-name="Path 1402" d="M1,1H12.045l7.4,40.918a5.683,5.683,0,0,0,5.522,4.92H51.8a5.683,5.683,0,0,0,5.522-4.92l4.418-25.639H14.806" transform="translate(-1 -1)" fill="none" stroke="#717a94" stroke-linecap="round" stroke-linejoin="round" stroke-width="3"/>
    </g>
    <path id="Union_4" data-name="Union 4" d="M8.947,19.959V13.077H2.065a2.065,2.065,0,0,1,0-4.13H8.947V2.065a2.065,2.065,0,0,1,4.13,0V8.947H19.96a2.065,2.065,0,0,1,0,4.13H13.077v6.882a2.065,2.065,0,1,1-4.13,0Z" transform="translate(947.88 127.494)" fill="#717a94"/>
  </g>
</svg>
