<svg xmlns="http://www.w3.org/2000/svg" xmlns:xlink="http://www.w3.org/1999/xlink" width="63.5" height="62.5" viewBox="0 0 63.5 62.5">
  <defs>
    <clipPath id="clip-path">
      <path id="Union_3" data-name="Union 3" d="M40.5,44.607V12.165H0V0H53.564V44.607Z" transform="translate(1)" fill="none"/>
    </clipPath>
  </defs>
  <g id="Group_1721" data-name="Group 1721" transform="translate(-5735.5 -2882)">
    <path id="message-square" d="M52.767,36.178a5.53,5.53,0,0,1-5.53,5.53H14.059L3,52.767V8.53A5.53,5.53,0,0,1,8.53,3H47.237a5.53,5.53,0,0,1,5.53,5.53Z" transform="translate(5734 2890.233)" fill="none" stroke="#717a94" stroke-linecap="round" stroke-linejoin="round" stroke-width="3"/>
    <g id="Group_1720" data-name="Group 1720" transform="translate(1 -1)">
      <g id="Mask_Group_7" data-name="Mask Group 7" transform="translate(5743.437 2883)" clip-path="url(#clip-path)">
        <path id="message-square-2" data-name="message-square" d="M50.808,36.178a5.424,5.424,0,0,1-5.312,5.53H13.624L3,52.767V8.53A5.424,5.424,0,0,1,8.312,3H45.5a5.424,5.424,0,0,1,5.312,5.53Z" transform="translate(-0.138 0.012)" fill="none" stroke="#717a94" stroke-linecap="round" stroke-linejoin="round" stroke-width="3"/>
      </g>
    </g>
    <g id="Ellipse_149" data-name="Ellipse 149" transform="translate(5745.915 2910.357)" fill="none" stroke="#717a94" stroke-width="2">
      <circle cx="3.717" cy="3.717" r="3.717" stroke="none"/>
      <circle cx="3.717" cy="3.717" r="2.717" fill="none"/>
    </g>
    <g id="Path_1415" data-name="Path 1415" transform="translate(5757.452 2910.357)" fill="none">
      <path d="M3.717,0A3.717,3.717,0,1,1,0,3.717,3.717,3.717,0,0,1,3.717,0Z" stroke="none"/>
      <path d="M 3.717219352722168 1.999999523162842 C 2.770339488983154 1.999999523162842 1.999999523162842 2.770339488983154 1.999999523162842 3.717219352722168 C 1.999999523162842 4.66409969329834 2.770339488983154 5.434439182281494 3.717219352722168 5.434439182281494 C 4.66409969329834 5.434439182281494 5.434439182281494 4.66409969329834 5.434439182281494 3.717219352722168 C 5.434439182281494 2.770339488983154 4.66409969329834 1.999999523162842 3.717219352722168 1.999999523162842 M 3.717219352722168 -4.76837158203125e-07 C 5.770179271697998 -4.76837158203125e-07 7.434439182281494 1.664259433746338 7.434439182281494 3.717219352722168 C 7.434439182281494 5.770179271697998 5.770179271697998 7.434439182281494 3.717219352722168 7.434439182281494 C 1.664259433746338 7.434439182281494 -4.76837158203125e-07 5.770179271697998 -4.76837158203125e-07 3.717219352722168 C -4.76837158203125e-07 1.664259433746338 1.664259433746338 -4.76837158203125e-07 3.717219352722168 -4.76837158203125e-07 Z" stroke="none" fill="#717a94"/>
    </g>
    <g id="Path_1416" data-name="Path 1416" transform="translate(5769.346 2910.357)" fill="none">
      <path d="M3.717,0A3.717,3.717,0,1,1,0,3.717,3.717,3.717,0,0,1,3.717,0Z" stroke="none"/>
      <path d="M 3.717219352722168 1.999999523162842 C 2.770339488983154 1.999999523162842 1.999999523162842 2.770339488983154 1.999999523162842 3.717219352722168 C 1.999999523162842 4.66409969329834 2.770339488983154 5.434439182281494 3.717219352722168 5.434439182281494 C 4.66409969329834 5.434439182281494 5.434439182281494 4.66409969329834 5.434439182281494 3.717219352722168 C 5.434439182281494 2.770339488983154 4.66409969329834 1.999999523162842 3.717219352722168 1.999999523162842 M 3.717219352722168 -4.76837158203125e-07 C 5.770179271697998 -4.76837158203125e-07 7.434439182281494 1.664259433746338 7.434439182281494 3.717219352722168 C 7.434439182281494 5.770179271697998 5.770179271697998 7.434439182281494 3.717219352722168 7.434439182281494 C 1.664259433746338 7.434439182281494 -4.76837158203125e-07 5.770179271697998 -4.76837158203125e-07 3.717219352722168 C -4.76837158203125e-07 1.664259433746338 1.664259433746338 -4.76837158203125e-07 3.717219352722168 -4.76837158203125e-07 Z" stroke="none" fill="#717a94"/>
    </g>
  </g>
</svg>
