<svg xmlns="http://www.w3.org/2000/svg" width="34.504" height="45.124" viewBox="0 0 34.504 45.124"><g transform="matrix(0.999, -0.035, 0.035, 0.999, 0, 1.151)"><path d="M32.988,17.7c-.129.876-.232,1.752-.4,2.62a27.492,27.492,0,0,1-3.685,9.089A55.056,55.056,0,0,1,16.082,43.6a1.338,1.338,0,0,1-1.993-.086,60.452,60.452,0,0,1-11.8-17.156A25.788,25.788,0,0,1,.069,17.98a.9.9,0,0,0-.069-.2V15.377c.086-.55.137-1.108.258-1.649C1.752,6.881,5.893,2.474,12.6.507A24.671,24.671,0,0,1,15.377,0h2.234c.55.086,1.1.155,1.641.249a16.862,16.862,0,0,1,13.3,12.6c.189.833.292,1.684.438,2.526Q32.988,16.537,32.988,17.7ZM15.205,40.754c.112-.077.172-.112.223-.155a53.244,53.244,0,0,0,10.481-11.52,24.034,24.034,0,0,0,4.278-11.4,13.374,13.374,0,0,0-2.706-9.561c-3.325-4.278-7.792-5.893-13.092-5.2A13.407,13.407,0,0,0,2.758,15.987a22.736,22.736,0,0,0,2.173,9.63,52.447,52.447,0,0,0,7.388,11.735C13.247,38.5,14.235,39.611,15.205,40.754Z" fill="#a7adbf"/><path d="M127.537,103.762A7.719,7.719,0,1,1,119.851,96,8.027,8.027,0,0,1,127.537,103.762Zm-3.09-.019a4.634,4.634,0,1,0-4.605,4.615A4.387,4.387,0,0,0,124.447,103.743Z" transform="translate(-103.32 -88.217)" fill="#a7adbf"/></g></svg>